<?xml version="1.0" encoding="utf-8"?>
<!-- Generator: Adobe Illustrator 16.0.0, SVG Export Plug-In . SVG Version: 6.00 Build 0)  -->
<!DOCTYPE svg PUBLIC "-//W3C//DTD SVG 1.1//EN" "http://www.w3.org/Graphics/SVG/1.1/DTD/svg11.dtd">
<svg version="1.1" id="Layer_1" xmlns="http://www.w3.org/2000/svg" xmlns:xlink="http://www.w3.org/1999/xlink" x="0px" y="0px"
	 width="512px" height="512px" viewBox="0 0 512 512" enable-background="new 0 0 512 512" xml:space="preserve">
<path fill-rule="evenodd" clip-rule="evenodd" fill="#BC171C" d="M90.742,93.55c0.065-13.285,3.325-16.089,15.883-13.492
	c50.581,10.463,96.521-0.562,138.204-30.191c7.553-5.369,12.969-5.091,20.396,0.165c41.741,29.541,87.684,40.519,138.254,29.976
	c12.061-2.514,15.621,0.321,15.592,12.642c-0.125,52.878,2.964,106.047-1.494,158.568c-7.941,93.574-52.336,164.097-141.876,201.811
	c-14.408,6.068-27.446,5.783-41.81-0.088c-76.73-31.36-121.018-89.906-136.916-169.119C87.846,243.873,90.614,119.99,90.742,93.55z
	 M109.118,102.902c0,18.585-0.348,38.47,0.075,58.338c0.765,35.976-1.579,72.482,3.759,107.803
	c11.355,75.126,50.438,131.919,121.33,164.401c14.326,6.563,27.266,6.43,41.469-0.24c79.457-37.315,117.771-102.479,123.801-187.288
	c3.254-45.776,0.971-91.948,1.104-137.94c0.009-2.529-0.734-5.06-1.1-7.409c-1.484-0.171-2.262-0.423-2.989-0.32
	c-49.593,7.057-94.986-3.99-136.942-31.012c-2.604-1.677-8.584-0.556-11.68,1.373c-21.681,13.507-44.551,24.521-69.908,27.829
	C155.856,101.332,133.314,101.45,109.118,102.902z"/>
<path fill-rule="evenodd" clip-rule="evenodd" fill="#BC171C" d="M345.176,243.687c0.011,50.152-40.634,90.883-90.474,90.661
	c-50.072-0.223-90.293-40.915-90.035-91.092c0.253-49.833,40.193-89.757,89.891-89.859
	C304.907,153.296,345.164,193.405,345.176,243.687z M326.771,244.083c0.162-39.787-31.516-72.059-70.936-72.267
	c-40.473-0.212-72.575,31.414-72.721,71.641c-0.145,40.19,31.883,72.374,72.097,72.444
	C294.523,315.971,326.606,283.77,326.771,244.083z"/>
<path fill-rule="evenodd" clip-rule="evenodd" fill="#BC171C" d="M245.63,264.001c12.813-16.021,24.805-30.848,36.589-45.836
	c4.261-5.419,8.997-11.118,15.985-5.977c7.892,5.805,2.787,12.064-1.672,17.638c-13.392,16.741-26.682,33.563-40.178,50.219
	c-8.156,10.066-12.096,10.07-20.914,0.237c-8.947-9.976-17.7-20.125-26.549-30.187c-4.43-5.038-9.589-10.669-2.707-16.679
	c7.314-6.386,12.396-0.302,17.072,5.09C230.269,246.593,237.372,254.6,245.63,264.001z"/>
</svg>
